<svg xmlns="http://www.w3.org/2000/svg" width="100%" height="100%" xmlns:xlink="http://www.w3.org/1999/xlink" viewBox="356.2109680175781 82.12879180908203 96.228515625 92.82494354248047" preserveAspectRatio="xMidYMid meet" zoomAndPan="disable" ><defs id="svgEditorDefs"><linearGradient gradientTransform="skewX(-45)" gradientUnits="objectBoundingBox" id="lgrd2-c-repeat" spreadMethod="repeat" x1="0%" x2="5%" y1="0%" y2="0%"><stop id="c1" offset="5%" stop-color="red" stop-opacity="0.8"/><stop id="c2" offset="75%" stop-color="yellow" stop-opacity="1"/></linearGradient><linearGradient gradientTransform="rotate(78.5144) scale(1.61805)" gradientUnits="objectBoundingBox" id="lgrd2-d-reflect" spreadMethod="reflect" x1="0%" x2="5%" y1="0%" y2="5%"><stop id="c1" offset="0%" stop-color="#e20709" stop-opacity="0.8"/><stop id="c2" offset="5%" stop-color="#9ad346" stop-opacity="1"/></linearGradient><linearGradient gradientUnits="objectBoundingBox" id="lrgd2-e1-repeat" spreadMethod="repeat" x1="20%" x2="40%" y1="0%" y2="0%"><stop offset="0%" stop-color="lightblue"/><stop offset="100%" stop-color="#ef5b2b"/></linearGradient><radialGradient cx="50%" cy="50%" fx="50%" fy="50%" id="rgrd2-white-red" r="50%"><stop offset="0%" style="stop-color:white;stop-opacity:0"/><stop offset="100%" style="stop-color:red;stop-opacity:1"/></radialGradient><radialGradient cx="50%" cy="50%" fx="50%" fy="50%" id="rgrd2-white-green" r="50%"><stop offset="0%" style="stop-color:rwhite;stop-opacity:0"/><stop offset="100%" style="stop-color:green;stop-opacity:1"/></radialGradient><radialGradient cx="50%" cy="50%" fx="50%" fy="50%" gradientUnits="objectBoundingBox" id="rgrd2-b" r="5%" spreadMethod="repeat"><stop id="c1" offset="5%" stop-color="red" stop-opacity="1"/><stop id="c2" offset="95%" stop-color="yellow" stop-opacity="1"/></radialGradient><radialGradient cx="50%" cy="50%" fx="50%" fy="50%" gradientUnits="objectBoundingBox" id="rgrd3-red-blue-red-reflect" r="5%" spreadMethod="reflect"><stop offset="0%" stop-color="red"/><stop offset="50%" stop-color="blue"/><stop offset="100%" stop-color="red"/></radialGradient><radialGradient fx="30%" fy="30%" gradientUnits="objectBoundingBox" id="rgrd11-a"><stop offset="0" stop-color="#f9caaa"/><stop offset="20%" stop-color="#f9caaa"/><stop offset="20%" stop-color="#f9ae7a"/><stop offset="40%" stop-color="#f9ae7a"/><stop offset="40%" stop-color="#f79959"/><stop offset="60%" stop-color="#f79959"/><stop offset="60%" stop-color="#fc9149"/><stop offset="80%" stop-color="#fc9149"/><stop offset="80%" stop-color="#f79959"/><stop offset="90%" stop-color="#f97821"/><stop offset="100%" stop-color="#f97821"/></radialGradient><radialGradient cx="50%" cy="50%" fx="50%" fy="50%" id="rgrd2-white-blue" r="50%"><stop offset="0%" style="stop-color:white;stop-opacity:0"/><stop offset="100%" style="stop-color:blue;stop-opacity:1"/></radialGradient><linearGradient gradientUnits="objectBoundingBox" id="lgrd6-arc" spreadMethod="pad" x1="0.52" x2="0.55" y1="1" y2="0"><stop offset="0.11" style="stop-color:red;stop-opacity:1;"/><stop offset="0.265" style="stop-color:rgb(255, 140, 0);stop-opacity:0.735;"/><stop offset="0.54" stop-color="yellow"/><stop offset="0.7" stop-color="rgb(50, 205, 50)"/><stop offset="0.79" stop-color="#0071FF" stop-opacity="0.605"/><stop offset="1" stop-color="rgb(148, 0, 211)"/></linearGradient><linearGradient id="lgrd5-a" x="0%" y="100%"><stop offset="0%" stop-color="olivedrab"/><stop offset="20%" stop-color="peru"/><stop offset="40%" stop-color="goldenrod"/><stop offset="60%" stop-color="firebrick"/><stop offset="80%" stop-color="thistle"/><stop offset="100%" stop-color="sandybrown"/></linearGradient><linearGradient gradientUnits="objectBoundingBox" id="lgrd4-green-red-blue" spreadMethod="pad" x1="0%" x2="100%" y1="0%" y2="0%"><stop offset="10%" stop-color="#00cc00" stop-opacity="1"/><stop offset="30%" stop-color="#006600" stop-opacity="1"/><stop offset="70%" stop-color="#cc0000" stop-opacity="1"/><stop offset="90%" stop-color="#000099" stop-opacity="1"/></linearGradient><linearGradient gradientTransform="" gradientUnits="objectBoundingBox" id="lgrd3-b" spreadMethod="repeat" x1="0%" x2="20%" y1="0%" y2="0%"><stop id="c1" offset="10%" stop-color="#bfba7f" stop-opacity="1"/><stop id="c2" offset="55%" stop-color="#cfba7f" stop-opacity="0.5"/><stop id="c3" offset="100%" stop-color="#b2ba7f" stop-opacity="1"/></linearGradient><linearGradient gradientUnits="objectBoundingBox" id="lgrd2-b-reflect" spreadMethod="reflect" x1="0%" x2="10%" y1="0%" y2="10%"><stop id="c1" offset="5%" stop-color="#babc91" stop-opacity="1"/><stop id="c2" offset="95%" stop-color="#c8d591" stop-opacity="1"/></linearGradient><linearGradient id="lgrd3-fr-h"><stop offset="0%" stop-color="blue"/><stop offset="50%" stop-color="black" stop-opacity="0"/><stop offset="100%" stop-color="red"/></linearGradient><radialGradient cx="50%" cy="50%" fx="50%" fy="50%" gradientUnits="objectBoundingBox" id="rgrd2-a" r="5%" spreadMethod="reflect"><stop id="c1" offset="5%" stop-color="red" stop-opacity="1"/><stop id="c2" offset="95%" stop-color="yellow" stop-opacity="1"/></radialGradient><linearGradient gradientUnits="objectBoundingBox" id="lgrd2-fire" spreadMethod="pad" x1="0%" x2="100%" y1="0%" y2="0%"><stop offset="0%" style="stop-color:rgb(255,255,0);stop-opacity:1"/><stop offset="100%" style="stop-color:rgb(255,0,0);stop-opacity:1"/></linearGradient><pattern height="10" id="hatch-black-120" patternTransform="rotate(120) scale(0.4)" patternUnits="userSpaceOnUse" viewBox="0 0 10 10" width="10" x="0" y="0"><line style="stroke:black;stroke-width:1px;" x1="0" x2="10" y1="5" y2="5"/></pattern><pattern height="10" id="hatch-black-dash-45" patternTransform="rotate(45) scale(0.4)" patternUnits="userSpaceOnUse" viewBox="0 0 24 10" width="24" x="0" y="0"><line style="stroke:black;stroke-width:1px;stroke-dasharray:4,4;" x1="0" x2="24" y1="5" y2="5"/></pattern><pattern height="10" id="hatch-black-dash-120" patternTransform="rotate(120) scale(0.4)" patternUnits="userSpaceOnUse" viewBox="0 0 24 10" width="24" x="0" y="0"><line style="stroke:black;stroke-width:1px;stroke-dasharray:4,4;" x1="0" x2="24" y1="5" y2="5"/></pattern><pattern height="10" id="star-navy-usr" patternUnits="userSpaceOnUse" viewBox="-20 -20 168 168" width="10" x="0" y="0"><path d="M63.999 0l-20.001 40.020-44 8 32 28-8 44 40.001-20 39.999 20-7.999-44 32.001-28-44.002-7.946z" style="fill:navy;stroke:none;"/></pattern><pattern height="10" id="sun-gold-usr" patternUnits="userSpaceOnUse" viewBox="-20 -20 168 168" width="10" x="0" y="0"><path d="M72 16.677v-8.677c0-4.419-3.581-8-8-8s-8 3.581-8 8v8.677c2.603-0.436 5.273-0.677 8-0.677s5.397 0.24 8 0.677z" style="fill:gold;stroke:none;"/><path d="M18.745 109.255c3.125 3.124 8.189 3.124 11.314 0l6.139-6.139c-4.373-3.114-8.199-6.941-11.314-11.314l-6.139 6.139c-3.123 3.123-3.123 8.189 0 11.314z" style="fill:gold;stroke:none;"/><path d="M56 111.323v8.677c0 4.419 3.581 8 8 8s8-3.581 8-8v-8.677c-2.603 0.436-5.273 0.677-8 0.677s-5.397-0.24-8-0.677z" style="fill:gold;stroke:none;"/><path d="M36.197 24.884l-6.139-6.139c-3.125-3.124-8.189-3.124-11.314 0s-3.124 8.189 0 11.314l6.139 6.139c3.115-4.374 6.941-8.2 11.314-11.314z" style="fill:gold;stroke:none;"/><path d="M8 72h8.677c-0.437-2.603-0.677-5.273-0.677-8s0.239-5.397 0.677-8h-8.677c-4.419 0-8 3.581-8 8s3.581 8 8 8z" style="fill:gold;stroke:none;"/><path d="M120 56h-8.677c0.437 2.603 0.677 5.273 0.677 8s-0.239 5.397-0.677 8h8.677c4.419 0 8-3.581 8-8s-3.581-8-8-8z" style="fill:gold;stroke:none;"/><path d="M109.255 18.745c-3.124-3.124-8.189-3.124-11.314 0l-6.139 6.139c4.373 3.114 8.199 6.941 11.314 11.314l6.139-6.139c3.123-3.123 3.123-8.189 0-11.314z" style="fill:gold;stroke:none;"/><path d="M109.255 109.255c3.124-3.124 3.124-8.189 0-11.314l-6.139-6.139c-3.114 4.373-6.941 8.2-11.314 11.314l6.139 6.139c3.123 3.123 8.189 3.123 11.314 0z" style="fill:gold;stroke:none;"/><path d="M104 64c0 22.091-17.909 40-40 40s-40-17.909-40-40c0-22.091 17.909-40 40-40s40 17.909 40 40z" style="fill:gold;stroke:none;"/></pattern><pattern height="20%" id="mac-maroon-obox" patternUnits="objectBoundingBox" viewBox="-20 -20 168 168" width="20%" x="0%" y="0%"><path d="M120 72h-112c-4.419 0-8 3.581-8 8s3.581 8 8 8h112c4.419 0 8-3.581 8-8s-3.581-8-8-8z" style="fill:maroon;stroke:none;"/><path d="M17.778 120h92.445c5.4 0 9.778-4.378 9.778-9.778v-14.222h-112v14.222c0 5.4 4.378 9.778 9.778 9.778z" style="fill:maroon;stroke:none;"/><path d="M64 16c-30.928 0-56 21.491-56 48h112c0-26.509-25.072-48-56-48zM36 56c-2.209 0-4-1.791-4-4s1.791-4 4-4 4 1.791 4 4-1.791 4-4 4zM52 40c-2.209 0-4-1.791-4-4s1.791-4 4-4 4 1.791 4 4-1.791 4-4 4zM76 40c-2.209 0-4-1.791-4-4s1.791-4 4-4 4 1.791 4 4-1.791 4-4 4zM92 56c-2.209 0-4-1.791-4-4s1.791-4 4-4 4 1.791 4 4-1.791 4-4 4z" style="fill:maroon;stroke:none;"/></pattern><pattern height="10" id="apple-green-usr" patternUnits="userSpaceOnUse" viewBox="-20 -20 168 168" width="10" x="0" y="0"><path d="M91.428 24c-8.764 0-16.798 3.091-23.094 8.232 2.173-12.878 14.362-25.253 14.494-25.387 1.563-1.562 1.563-4.094 0-5.657-1.561-1.562-4.095-1.562-5.656 0-0.657 0.657-15.123 15.301-16.976 31.486-6.373-5.405-14.613-8.675-23.625-8.675-20.198 0-36.572 16.373-36.572 36.572 0 5.373 1.175 10.466 3.257 15.061l14.745 35.809c1.3 3.18 3.226 6.166 5.808 8.749 10.414 10.414 27.299 10.414 37.712 0 0.907-0.907 1.729-1.864 2.477-2.861 0.749 0.996 1.571 1.954 2.477 2.861 10.414 10.414 27.299 10.414 37.712 0 2.583-2.583 4.508-5.568 5.808-8.749l0.002 0.004 14.743-35.813c2.084-4.595 3.259-9.688 3.259-15.060 0-20.198-16.373-36.572-36.572-36.572zM64 85.337c-0.078-0.105-0.161-0.207-0.241-0.311 0.082-0.091 0.16-0.186 0.241-0.278v0.589z" style="fill:green;stroke:none,"/></pattern><pattern height="100%" id="ellipse-center" patternContentUnits="objectBoundingBox" patternUnits="objectBoundingBox" preserveAspectRatio="xMinYMin meet" width="100%" x="0%" y="0%"><circle cx="0.5" cy="0.5" r="0.5" style="fill:navy;fill-opacity:0.1;stroke:none;"/><circle cx="0.5" cy="0.5" r="0.4" style="fill:navy;fill-opacity:0.2;stroke:none;"/><circle cx="0.5" cy="0.5" r="0.3" style="fill:navy;fill-opacity:0.4;stroke:none;"/><circle cx="0.5" cy="0.5" r="0.2" style="fill:navy;fill-opacity:0.6;stroke:none;"/><circle cx="0.5" cy="0.5" r="0.1" style="fill:navy;fill-opacity:1;stroke:none;"/></pattern><pattern height="20%" id="meal-steelblue-obox" patternUnits="objectBoundingBox" viewBox="-20 -20 168 168" width="20%" x="0%" y="0%"><path d="M20 0c-2.209 0-4 1.791-4 4v48c0 2.209 1.791 4 4 4h32c2.209 0 4-1.791 4-4v-48c0-2.209-1.791-4-4-4s-4 1.791-4 4v44h-8v-44c0-2.209-1.791-4-4-4s-4 1.791-4 4v44h-8v-44c0-2.209-1.791-4-4-4z" style="fill:steelblue;stroke:none;"/><path d="M36 128c6.627 0 12-5.373 12-12v-52h-24v52c0 6.627 5.372 12 12 12z" style="fill:steelblue;stroke:none;"/><path d="M80 116c0 6.627 5.373 12 12 12s12-5.373 12-12v-36h-24v36z" style="fill:steelblue;stroke:none;"/><path d="M80 0v72h32c0-72-32-72-32-72z" style="fill:steelblue;stroke:none;"/></pattern><radialGradient cy="60%" fx="45%" fy="45%" gradientUnits="objectBoundingBox" id="rgrd11-b" r="2"><stop offset="0%" stop-color="#48afc1"/><stop offset="10%" stop-color="#b4c63b"/><stop offset="20%" stop-color="#ef5b2b"/><stop offset="30%" stop-color="#503969"/><stop offset="40%" stop-color="#ab6294"/><stop offset="50%" stop-color="#1cb98f"/><stop offset="60%" stop-color="#48afc1"/><stop offset="70%" stop-color="#b4c63b"/><stop offset="80%" stop-color="#ef5b2b"/><stop offset="90%" stop-color="#503969"/><stop offset="100%" stop-color="#ab6294"/></radialGradient><path id="svgEditorClosePathDefs" stroke="black" style="stroke-width: 1px; vector-effect: non-scaling-stroke;" fill="khaki"/></defs><rect id="svgEditorBackground" x="0" y="0" width="1090" height="450" style="stroke: none; fill: none;"/><g id="e11_group" transform="matrix(1, 0, 0, 1, -11, 9)"><text fill="url(&quot;#lgrd2-fire&quot;)" style="font-family: Verdana; font-size: 35pt; font-weight: bolder; font-style: normal;" x="398.333" y="135.333" id="e1_texte">K</text><circle id="e4_circle" cx="415.333" cy="119.333" style="stroke-width: 5px; vector-effect: non-scaling-stroke; fill-opacity: 0;" r="40.7954" fill="url(&quot;#meal-steelblue-obox&quot;)" stroke="url(&quot;#rgrd2-b&quot;)"/></g><g id="e12_group" transform="matrix(1, 0, 0, 1, -11, 9)"><text fill="url(&quot;#lgrd2-fire&quot;)" style="font-family: Verdana; font-size: 35pt; font-weight: bolder; font-style: normal;" x="398.333" y="135.333" id="e13_texte">K</text><circle id="e14_circle" cx="415.333" cy="119.333" style="stroke-width: 5px; vector-effect: non-scaling-stroke; fill-opacity: 0;" r="40.7954" fill="url(&quot;#meal-steelblue-obox&quot;)" stroke="url(&quot;#rgrd2-b&quot;)"/></g><g id="e15_group" transform="matrix(1, 0, 0, 1, -11, 9)"><text fill="url(&quot;#lgrd2-fire&quot;)" style="font-family: Verdana; font-size: 35pt; font-weight: bolder; font-style: normal;" x="398.333" y="135.333" id="e16_texte">K</text><circle id="e17_circle" cx="415.333" cy="119.333" style="stroke-width: 5px; vector-effect: non-scaling-stroke; fill-opacity: 0;" r="40.7954" fill="url(&quot;#meal-steelblue-obox&quot;)" stroke="url(&quot;#rgrd2-b&quot;)"/></g><g id="e18_group" transform="matrix(1, 0, 0, 1, -11, 9)"><text fill="url(&quot;#lgrd2-fire&quot;)" style="font-family: Verdana; font-size: 35pt; font-weight: bolder; font-style: normal;" x="398.333" y="135.333" id="e19_texte">K</text><circle id="e20_circle" cx="415.333" cy="119.333" style="stroke-width: 5px; vector-effect: non-scaling-stroke; fill-opacity: 0;" r="40.7954" fill="url(&quot;#meal-steelblue-obox&quot;)" stroke="url(&quot;#rgrd2-b&quot;)"/></g></svg>